{"title":"Cracks.2009.DVDRiP.XviD.OPTIONAL-NORDIC_SUB-Zen_Bud","uid":5902858,"size":867504625,"categoryP":"video","categoryS":"movies","magnet":"?xt=urn:btih:364a6220c3c65ac2680d8aa609f8bda1ecaa7863&amp;dn=Cracks.2009.DVDRiP.XviD.OPTIONAL-NORDIC_SUB-Zen_Bud&amp;tr=udp%3A%2F%2Ftracker.openbittorrent.com%3A80&amp;tr=udp%3A%2F%2Fopen.demonii.com%3A1337&amp;tr=udp%3A%2F%2Ftracker.coppersurfer.tk%3A6969&amp;tr=udp%3A%2F%2Fexodus.desync.com%3A6969","seeders":1,"leechers":0,"uploader":"Zen_Bud","files":-1,"time":1287735996,"description":"********** Cracks.2009.DVDRiP.XviD.OPTIONAL-NORDIC_SUB-Zen_Bud **********\n\nFormat                           : AVI\nFile size                        : 817 MiB\nDuration                         : 1h 39mn\nOverall bit rate                 : 1 145 Kbps\n\nVideo\n\nFormat                           : MPEG-4 Visual\nCodec ID/Hint                    : XviD\nDuration                         : 1h 39mn\nBit rate                         : 1 004 Kbps\nWidth                            : 720 pixels\nHeight                           : 576 pixels\nDisplay aspect ratio             : 16:9\nStream size                      : 717 MiB (88%)\nWriting library                  : XviD 1.1.2 (UTC 2006-11-01)\n\nAudio\n\nFormat                           : MPEG Audio\nCodec ID/Hint                    : MP3\nDuration                         : 1h 39mn\nBit rate                         : 128 Kbps\nChannel(s)                       : 2 channels\nSampling rate                    : 48.0 KHz\nStream size                      : 91.4 MiB (11%)\nLanguage                         : English\n\nText #1\nLanguage                         : Swedish\n\nText #2\nLanguage                         : Norwegian\n\nText #3\nLanguage                         : Danish\n\nText #4\nLanguage                         : Finnish\n\n\nA look at the lives and relationships among girls \n at an elite British boarding school. \n\n","torrent":{"xt":"urn:btih:364a6220c3c65ac2680d8aa609f8bda1ecaa7863","amp;dn":"Cracks.2009.DVDRiP.XviD.OPTIONAL-NORDIC_SUB-Zen_Bud","amp;tr":["udp%3A%2F%2Ftracker.openbittorrent.com%3A80","udp%3A%2F%2Fopen.demonii.com%3A1337","udp%3A%2F%2Ftracker.coppersurfer.tk%3A6969","udp%3A%2F%2Fexodus.desync.com%3A6969"],"infoHash":"364a6220c3c65ac2680d8aa609f8bda1ecaa7863","infoHashBuffer":{"type":"Buffer","data":[54,74,98,32,195,198,90,194,104,13,138,166,9,248,189,161,236,170,120,99]},"announce":[],"urlList":[]}}